<?xml version="1.0" encoding="UTF-8" standalone="no"?><!DOCTYPE svg PUBLIC "-//W3C//DTD SVG 1.1//EN" "http://www.w3.org/Graphics/SVG/1.1/DTD/svg11.dtd"><svg width="100%" height="100%" viewBox="0 0 528 528" version="1.1" xmlns="http://www.w3.org/2000/svg" xmlns:xlink="http://www.w3.org/1999/xlink" xml:space="preserve" xmlns:serif="http://www.serif.com/" style="fill-rule:evenodd;clip-rule:evenodd;stroke-linejoin:round;stroke-miterlimit:2;"><rect id="logo" x="0" y="0" width="527.3" height="527.3" style="fill:none;"/><g><g id="bg"><circle id="bg1" serif:id="bg" cx="263.635" cy="263.635" r="253.635" style="fill:#fff;"/><path d="M263.635,0c-145.504,0 -263.635,118.131 -263.635,263.635c0,145.505 118.131,263.636 263.635,263.636c145.505,-0 263.636,-118.131 263.636,-263.636c-0,-145.504 -118.131,-263.635 -263.636,-263.635Zm0,10c139.986,0 253.636,113.65 253.636,253.635c-0,139.986 -113.65,253.636 -253.636,253.636c-139.985,-0 -253.635,-113.65 -253.635,-253.636c0,-139.985 113.65,-253.635 253.635,-253.635Z"/></g><g id="pitch"><g id="top"><path d="M104.511,263.598c0.08,-60.838 35.233,-118.914 94.352,-145.264c80.206,-35.749 174.346,0.345 210.095,80.551c9.381,21.046 13.814,43.051 13.802,64.713l-318.249,-0Z" style="fill:#00c582;"/><path d="M94.511,263.585c-0.004,2.654 1.048,5.201 2.924,7.079c1.876,1.878 4.421,2.934 7.076,2.934l318.249,-0c5.521,-0 9.997,-4.474 10,-9.995c0.013,-23.026 -4.697,-46.418 -14.668,-68.789c-37.996,-85.247 -138.053,-123.61 -223.3,-85.614c-62.832,28.005 -100.196,89.726 -100.281,154.385Zm10,0.013c0.08,-60.838 35.233,-118.914 94.352,-145.264c80.206,-35.749 174.346,0.345 210.095,80.551c9.381,21.046 13.814,43.051 13.802,64.713l-318.249,-0Z"/><path d="M150.876,263.598c0.063,-43.106 24.973,-84.251 66.86,-102.92c56.836,-25.333 123.546,0.244 148.878,57.08c6.645,14.908 9.787,30.495 9.781,45.84l-225.519,-0Z" style="fill:#00c582;"/><path d="M140.876,263.583c-0.004,2.655 1.048,5.202 2.924,7.081c1.876,1.878 4.421,2.934 7.076,2.934l225.519,-0c5.521,-0 9.998,-4.475 10,-9.996c0.007,-16.709 -3.412,-33.682 -10.647,-49.915c-27.579,-61.877 -100.206,-89.722 -162.083,-62.143c-45.6,20.324 -72.72,65.113 -72.789,112.039Zm10,0.015c0.063,-43.106 24.973,-84.251 66.86,-102.92c56.836,-25.333 123.546,0.244 148.878,57.08c6.645,14.908 9.787,30.495 9.781,45.84l-225.519,-0Z"/></g><g id="bottom"><path d="M422.76,263.673c-0.08,60.838 -35.233,118.914 -94.352,145.264c-80.206,35.749 -174.347,-0.345 -210.095,-80.551c-9.381,-21.046 -13.815,-43.051 -13.802,-64.713l318.249,0Z" style="fill:#00c582;"/><path d="M432.76,263.686c0.004,-2.654 -1.048,-5.201 -2.924,-7.079c-1.876,-1.879 -4.421,-2.934 -7.076,-2.934l-318.249,0c-5.521,0 -9.997,4.474 -10,9.994c-0.013,23.026 4.697,46.419 14.668,68.79c37.995,85.247 138.053,123.609 223.3,85.614c62.832,-28.005 100.196,-89.726 100.281,-154.385Zm-10,-0.013c-0.08,60.838 -35.233,118.914 -94.352,145.264c-80.206,35.749 -174.347,-0.345 -210.095,-80.551c-9.381,-21.046 -13.815,-43.051 -13.802,-64.713l318.249,0Z"/><path d="M376.395,263.673c-0.064,43.105 -24.973,84.25 -66.861,102.92c-56.835,25.333 -123.545,-0.244 -148.877,-57.08c-6.645,-14.908 -9.787,-30.495 -9.781,-45.84l225.519,0Z" style="fill:#00c582;"/><path d="M386.395,263.688c0.004,-2.655 -1.048,-5.202 -2.924,-7.081c-1.876,-1.878 -4.422,-2.934 -7.076,-2.934l-225.519,0c-5.521,0 -9.998,4.475 -10,9.996c-0.007,16.709 3.411,33.682 10.647,49.915c27.579,61.877 100.206,89.722 162.082,62.143c45.601,-20.324 72.721,-65.114 72.79,-112.039Zm-10,-0.015c-0.064,43.105 -24.973,84.25 -66.861,102.92c-56.835,25.333 -123.545,-0.244 -148.877,-57.08c-6.645,-14.908 -9.787,-30.495 -9.781,-45.84l225.519,0Z"/></g></g><g id="ball"><circle id="ball1" serif:id="ball" cx="263.635" cy="263.635" r="73.389" style="fill:#fff;"/><path d="M263.635,180.247c-46.023,-0 -83.388,37.365 -83.388,83.388c-0,46.024 37.365,83.389 83.388,83.389c46.024,0 83.389,-37.365 83.389,-83.389c0,-46.023 -37.365,-83.388 -83.389,-83.388Zm0,10c40.505,-0 73.389,32.884 73.389,73.388c0,40.505 -32.884,73.389 -73.389,73.389c-40.504,0 -73.388,-32.884 -73.388,-73.389c-0,-40.504 32.884,-73.388 73.388,-73.388Z"/></g><g id="text"><g><path d="M432.827,170.498l8.398,-4.332l8.32,-3.505l-8.646,6.036l2.66,5.154l9.928,-3.547l-7.677,4.749l-8.398,4.332l3.209,6.221l9.82,-5.066l19.864,-13.735l-2.591,-5.022l-12.243,2.66l9.263,-8.436l-2.59,-5.021l-22.706,8.225l-9.82,5.066l3.209,6.221Z" style="fill-rule:nonzero;"/><path d="M412.949,141.088l10.262,-7.981l6.139,7.894l-10.262,7.981l4.297,5.525l27.629,-21.486l-4.297,-5.525l-11.841,9.208l-6.139,-7.894l11.841,-9.208l-4.297,-5.526l-27.629,21.486l4.297,5.526Z" style="fill-rule:nonzero;"/><path d="M413.472,91.668c-4.119,-3.645 -10.471,-3.258 -14.149,0.898l-9.908,11.196c-3.678,4.156 -3.295,10.437 0.861,14.116l2.996,2.651c4.118,3.645 10.47,3.257 14.116,-0.861l9.907,-11.196c3.646,-4.118 3.291,-10.508 -0.827,-14.153l-2.996,-2.651Zm-4.672,5.279l2.995,2.651c1.236,1.094 1.352,2.999 0.259,4.235l-9.908,11.195c-1.094,1.236 -2.962,1.385 -4.235,0.259l-2.996,-2.651c-1.273,-1.127 -1.385,-2.962 -0.258,-4.235l9.908,-11.195c1.094,-1.236 2.999,-1.352 4.235,-0.259Z" style="fill-rule:nonzero;"/><path d="M358.544,95.471l10.581,-7.239l-1.405,12.742l5.703,3.421l18.003,-30.015l-6.003,-3.6l-9.541,15.908l0.745,-7.075l-3.431,-2.057l-5.89,3.988l9.542,-15.908l-6.003,-3.601l-18.004,30.015l5.703,3.421Z" style="fill-rule:nonzero;"/><path d="M341.456,49.306c-5.153,-1.923 -10.943,0.72 -12.883,5.919l-5.228,14.007c-1.941,5.199 0.673,10.924 5.872,12.865l3.748,1.399c5.152,1.923 10.942,-0.719 12.865,-5.872l5.228,-14.007c1.923,-5.152 -0.702,-10.989 -5.855,-12.912l-3.747,-1.399Zm-2.466,6.605l3.748,1.399c1.546,0.577 2.339,2.314 1.762,3.86l-5.228,14.006c-0.577,1.546 -2.267,2.356 -3.86,1.762l-3.747,-1.399c-1.593,-0.595 -2.356,-2.267 -1.762,-3.86l5.228,-14.006c0.577,-1.546 2.314,-2.339 3.859,-1.762Z" style="fill-rule:nonzero;"/><path d="M291.833,72.591l1.696,-9.652l7.285,-12.58l2.564,14.31l-1.695,9.652l6.894,1.211l1.912,-10.884l-4.525,-25.111l-6.304,-1.107l-12.81,22.067l-1.911,10.883l6.894,1.211Z" style="fill-rule:nonzero;"/><path d="M249.375,63.683l0.073,7l23.999,-0.25l-0.364,-34.998l-23.999,0.25l0.073,6.999l16.999,-0.176l0.082,7.849l-15,0.156l0.073,7l14.999,-0.156l0.064,6.15l-16.999,0.176Z" style="fill-rule:nonzero;"/><path d="M224.164,74.611l13.731,-2.731l-6.826,-34.327l-13.731,2.73c-5.395,1.073 -8.921,6.413 -7.848,11.807l2.915,14.663c1.073,5.395 6.364,8.931 11.759,7.858Zm-7.809,-23.886c-0.322,-1.618 0.739,-3.206 2.358,-3.527l6.865,-1.366l4.086,20.548l-6.865,1.365c-1.668,0.332 -3.206,-0.739 -3.528,-2.357l-2.916,-14.663Z" style="fill-rule:nonzero;"/><path d="M184.614,56.084l-2.225,-5.572l-6.501,2.597l2.226,5.572l6.5,-2.597Z" style="fill:#00c582;fill-rule:nonzero;"/><path d="M149.415,92.323l-5.921,3.734l1.467,2.326c2.961,4.695 9.099,6.085 13.793,3.124l3.383,-2.134c4.652,-2.934 6.058,-9.141 3.124,-13.793l-7.976,-12.645c-2.934,-4.652 -9.167,-6.1 -13.819,-3.166l-3.384,2.134c-4.652,2.934 -6.057,9.141 -3.096,13.835l1.467,2.326l5.92,-3.734l-1.467,-2.326c-0.88,-1.395 -0.458,-3.257 0.937,-4.138l3.384,-2.134c1.395,-0.88 3.257,-0.458 4.138,0.937l7.975,12.645c0.88,1.396 0.501,3.231 -0.937,4.138l-3.383,2.134c-1.438,0.907 -3.231,0.501 -4.138,-0.937l-1.467,-2.326Z" style="fill-rule:nonzero;"/><path d="M116.951,98.125l19.049,20.522l5.13,-4.762l-23.811,-25.652l-17.59,16.327l4.762,5.131l12.46,-11.566Z" style="fill-rule:nonzero;"/><path d="M101.537,158.124l4.167,-5.624l-20.047,-14.853c-1.326,-0.982 -1.607,-2.87 -0.625,-4.196l2.381,-3.214c0.982,-1.326 2.871,-1.607 4.197,-0.625l20.047,14.852l4.167,-5.624l-20.047,-14.853c-4.46,-3.303 -10.754,-2.366 -14.029,2.053l-2.381,3.214c-3.274,4.419 -2.297,10.744 2.123,14.018l20.047,14.852Z" style="fill-rule:nonzero;"/><path d="M71.501,179.852c0.957,1.802 2.492,3.33 4.469,4.295l0.45,0.22c4.987,2.434 10.938,0.386 13.372,-4.601l5.702,-11.683l-31.454,-15.351l-6.14,12.582c-2.434,4.987 -0.387,10.938 4.601,13.373l1.348,0.657c2.516,1.228 5.245,1.336 7.652,0.508Zm12.001,-3.156c-0.746,1.527 -2.484,2.125 -4.012,1.38l-0.45,-0.219c-1.527,-0.746 -2.125,-2.485 -1.38,-4.012l2.632,-5.392l5.841,2.85l-2.631,5.393Zm-17.931,-4.3c-1.528,-0.746 -2.126,-2.484 -1.38,-4.012l3.07,-6.291l6.74,3.289l-3.07,6.291c-0.746,1.528 -2.484,2.126 -4.012,1.381l-1.348,-0.658Z" style="fill-rule:nonzero;"/></g><g><path d="M93.072,354.236l-8.462,4.207l-8.371,3.379l8.735,-5.905l-2.582,-5.194l-9.981,3.399l7.748,-4.634l8.462,-4.206l-3.117,-6.269l-9.894,4.919l-20.066,13.438l2.515,5.059l12.281,-2.476l-9.388,8.297l2.515,5.059l22.826,-7.886l9.895,-4.919l-3.116,-6.268Z" style="fill-rule:nonzero;"/><path d="M112.508,383.94l-10.38,7.826l-6.02,-7.984l10.38,-7.827l-4.214,-5.589l-27.947,21.071l4.215,5.59l11.977,-9.031l6.02,7.985l-11.977,9.03l4.214,5.59l27.947,-21.072l-4.215,-5.589Z" style="fill-rule:nonzero;"/><path d="M111.248,433.347c4.064,3.706 10.421,3.413 14.161,-0.688l10.074,-11.046c3.74,-4.1 3.45,-10.387 -0.651,-14.127l-2.955,-2.695c-4.064,-3.706 -10.421,-3.414 -14.127,0.65l-10.074,11.046c-3.706,4.064 -3.447,10.458 0.616,14.164l2.956,2.696Zm4.75,-5.209l-2.955,-2.696c-1.219,-1.112 -1.307,-3.019 -0.195,-4.238l10.074,-11.046c1.112,-1.219 2.982,-1.341 4.238,-0.195l2.956,2.695c1.256,1.146 1.34,2.982 0.195,4.238l-10.074,11.046c-1.112,1.22 -3.019,1.307 -4.239,0.196Z" style="fill-rule:nonzero;"/><path d="M166.226,430.365l-10.687,7.079l1.595,-12.72l-5.651,-3.505l-18.45,29.742l5.949,3.69l9.778,-15.763l-0.851,7.062l3.399,2.109l5.95,-3.9l-9.779,15.764l5.949,3.689l18.449,-29.742l-5.651,-3.505Z" style="fill-rule:nonzero;"/><path d="M182.624,476.779c5.123,1.999 10.952,-0.556 12.97,-5.726l5.436,-13.927c2.018,-5.17 -0.509,-10.934 -5.679,-12.952l-3.727,-1.454c-5.123,-2 -10.951,0.556 -12.951,5.679l-5.436,13.927c-2,5.123 0.537,10.998 5.661,12.998l3.726,1.455Zm2.563,-6.568l-3.726,-1.454c-1.537,-0.6 -2.304,-2.349 -1.704,-3.886l5.436,-13.926c0.6,-1.538 2.302,-2.322 3.886,-1.704l3.726,1.454c1.584,0.618 2.322,2.302 1.704,3.886l-5.436,13.926c-0.6,1.537 -2.349,2.304 -3.886,1.704Z" style="fill-rule:nonzero;"/><path d="M232.588,454.237l-1.839,9.626l-7.473,12.469l-2.349,-14.345l1.839,-9.626l-6.876,-1.314l-2.073,10.854l4.149,25.176l6.286,1.201l13.138,-21.873l2.074,-10.854l-6.876,-1.314Z" style="fill-rule:nonzero;"/><path d="M274.909,463.778l0.032,-7l-24,-0.109l-0.159,35l24,0.109l0.031,-7l-16.999,-0.077l0.035,-7.85l15,0.068l0.032,-7l-15,-0.068l0.028,-6.15l17,0.077Z" style="fill-rule:nonzero;"/><path d="M300.28,453.228l-13.77,2.525l6.313,34.426l13.77,-2.525c5.41,-0.992 9.016,-6.279 8.024,-11.689l-2.697,-14.704c-0.992,-5.41 -6.23,-9.025 -11.64,-8.033Zm7.451,24c0.298,1.623 -0.786,3.194 -2.409,3.492l-6.885,1.262l-3.779,-20.606l6.885,-1.263c1.672,-0.306 3.194,0.787 3.492,2.41l2.696,14.705Z" style="fill-rule:nonzero;"/><path d="M339.549,472.343l2.142,5.605l6.539,-2.499l-2.142,-5.605l-6.539,2.499Z" style="fill:#00c582;fill-rule:nonzero;"/><path d="M375.286,436.634l5.976,-3.646l-1.433,-2.347c-2.89,-4.738 -9.006,-6.22 -13.744,-3.329l-3.415,2.083c-4.695,2.864 -6.193,9.049 -3.329,13.745l7.786,12.762c2.864,4.695 9.075,6.236 13.77,3.372l3.415,-2.083c4.695,-2.864 6.193,-9.05 3.303,-13.788l-1.432,-2.347l-5.976,3.645l1.432,2.348c0.86,1.408 0.41,3.264 -0.998,4.123l-3.415,2.083c-1.409,0.86 -3.264,0.41 -4.124,-0.998l-7.785,-12.763c-0.86,-1.409 -0.453,-3.238 0.998,-4.123l3.415,-2.083c1.451,-0.886 3.238,-0.453 4.124,0.998l1.432,2.348Z" style="fill-rule:nonzero;"/><path d="M407.832,431.317l-18.74,-20.804l-5.201,4.685l23.425,26.005l17.832,-16.063l-4.685,-5.201l-12.631,11.378Z" style="fill-rule:nonzero;"/><path d="M424.14,371.555l-4.25,5.562l19.823,15.15c1.311,1.002 1.564,2.894 0.562,4.205l-2.429,3.178c-1.002,1.311 -2.894,1.564 -4.205,0.562l-19.824,-15.15l-4.25,5.562l19.823,15.15c4.41,3.37 10.718,2.527 14.058,-1.843l2.429,-3.178c3.339,-4.37 2.457,-10.708 -1.913,-14.048l-19.824,-15.15Z" style="fill-rule:nonzero;"/><path d="M454.497,350.278c-0.929,-1.816 -2.442,-3.367 -4.404,-4.362l-0.446,-0.225c-4.951,-2.509 -10.932,-0.55 -13.44,4.4l-5.876,11.597l31.222,15.818l6.327,-12.488c2.508,-4.951 0.55,-10.932 -4.401,-13.44l-1.338,-0.678c-2.497,-1.266 -5.225,-1.414 -7.644,-0.622Zm-12.046,2.977c0.768,-1.516 2.516,-2.089 4.032,-1.32l0.446,0.226c1.517,0.768 2.089,2.515 1.32,4.032l-2.711,5.352l-5.799,-2.938l2.712,-5.352Zm17.865,4.567c1.516,0.768 2.088,2.516 1.32,4.032l-3.164,6.244l-6.69,-3.389l3.164,-6.245c0.768,-1.516 2.515,-2.088 4.032,-1.32l1.338,0.678Z" style="fill-rule:nonzero;"/></g></g><g id="arrows"><path d="M491.726,236.193l-17.36,-0.472c1.885,9.138 3.135,18.455 3.135,27.914c0,20.787 -2.972,40.884 -8.516,59.901l-10.441,0c5.824,-18.95 8.957,-39.063 8.957,-59.901c0,-20.838 -3.133,-40.95 -8.957,-59.9l7.377,-0l25.805,32.458Z" style="fill:#00c582;"/><path d="M52.905,291.55c-1.885,-9.138 -3.135,-18.455 -3.135,-27.915c-0,-20.786 2.971,-40.883 8.516,-59.9l10.441,-0c-5.824,18.95 -8.957,39.062 -8.957,59.9c-0,20.838 3.133,40.951 8.957,59.901l-7.377,0l-25.805,-32.458l17.36,0.472Z" style="fill:#00c582;"/></g></g></svg>