<?xml version="1.0" encoding="UTF-8" standalone="no"?><!DOCTYPE svg PUBLIC "-//W3C//DTD SVG 1.1//EN" "http://www.w3.org/Graphics/SVG/1.1/DTD/svg11.dtd"><svg width="100%" height="100%" viewBox="0 0 600 600" version="1.1" xmlns="http://www.w3.org/2000/svg" xmlns:xlink="http://www.w3.org/1999/xlink" xml:space="preserve" xmlns:serif="http://www.serif.com/" style="fill-rule:evenodd;clip-rule:evenodd;stroke-linejoin:round;stroke-miterlimit:2;"><rect id="logo" x="0" y="0" width="600" height="600" style="fill:none;"/><g><g id="bg"><circle id="bg1" serif:id="bg" cx="300" cy="300" r="253.635" style="fill:#fff;"/><path d="M300,36.365c-145.504,-0 -263.635,118.131 -263.635,263.635c-0,145.504 118.131,263.635 263.635,263.635c145.504,0 263.635,-118.131 263.635,-263.635c0,-145.504 -118.131,-263.635 -263.635,-263.635Zm0,10c139.985,-0 253.635,113.65 253.635,253.635c0,139.985 -113.65,253.635 -253.635,253.635c-139.985,0 -253.635,-113.65 -253.635,-253.635c-0,-139.985 113.65,-253.635 253.635,-253.635Z"/></g><g id="pitch"><g id="top"><path d="M140.875,299.962c0.08,-60.838 35.233,-118.913 94.353,-145.264c80.206,-35.748 174.346,0.345 210.095,80.551c9.38,21.046 13.814,43.052 13.802,64.713l-318.25,0Z" style="fill:#00c582;"/><path d="M130.875,299.949c-0.003,2.655 1.049,5.202 2.925,7.08c1.875,1.878 4.421,2.933 7.075,2.933l318.25,0c5.52,0 9.997,-4.473 10,-9.994c0.013,-23.026 -4.697,-46.418 -14.669,-68.79c-37.995,-85.247 -138.052,-123.609 -223.299,-85.613c-62.833,28.005 -100.197,89.725 -100.282,154.384Zm10,0.013c0.08,-60.838 35.233,-118.913 94.353,-145.264c80.206,-35.748 174.346,0.345 210.095,80.551c9.38,21.046 13.814,43.052 13.802,64.713l-318.25,0Z"/><path d="M187.241,299.962c0.063,-43.105 24.972,-84.25 66.86,-102.92c56.836,-25.332 123.546,0.245 148.878,57.08c6.645,14.908 9.787,30.496 9.78,45.84l-225.518,0Z" style="fill:#00c582;"/><path d="M177.241,299.948c-0.004,2.654 1.048,5.202 2.923,7.08c1.876,1.879 4.422,2.934 7.077,2.934l225.518,0c5.522,0 9.998,-4.474 10,-9.996c0.007,-16.708 -3.411,-33.682 -10.646,-49.915c-27.579,-61.876 -100.206,-89.722 -162.083,-62.143c-45.6,20.325 -72.72,65.114 -72.789,112.04Zm10,0.014c0.063,-43.105 24.972,-84.25 66.86,-102.92c56.836,-25.332 123.546,0.245 148.878,57.08c6.645,14.908 9.787,30.496 9.78,45.84l-225.518,0Z"/></g><g id="bottom"><path d="M459.125,300.038c-0.08,60.838 -35.233,118.913 -94.353,145.264c-80.206,35.748 -174.346,-0.345 -210.095,-80.551c-9.38,-21.046 -13.814,-43.052 -13.802,-64.713l318.25,-0Z" style="fill:#00c582;"/><path d="M469.125,300.051c0.003,-2.655 -1.049,-5.202 -2.925,-7.08c-1.875,-1.878 -4.421,-2.933 -7.075,-2.933l-318.25,-0c-5.52,-0 -9.997,4.473 -10,9.994c-0.013,23.026 4.697,46.418 14.669,68.79c37.995,85.247 138.052,123.609 223.299,85.613c62.833,-28.005 100.197,-89.725 100.282,-154.384Zm-10,-0.013c-0.08,60.838 -35.233,118.913 -94.353,145.264c-80.206,35.748 -174.346,-0.345 -210.095,-80.551c-9.38,-21.046 -13.814,-43.052 -13.802,-64.713l318.25,-0Z"/><path d="M412.759,300.038c-0.063,43.105 -24.972,84.25 -66.86,102.92c-56.836,25.332 -123.546,-0.245 -148.878,-57.08c-6.645,-14.908 -9.787,-30.496 -9.78,-45.84l225.518,-0Z" style="fill:#00c582;"/><path d="M422.759,300.052c0.004,-2.654 -1.048,-5.202 -2.923,-7.08c-1.876,-1.879 -4.422,-2.934 -7.077,-2.934l-225.518,-0c-5.522,-0 -9.998,4.474 -10,9.996c-0.007,16.708 3.411,33.682 10.646,49.915c27.579,61.876 100.206,89.722 162.083,62.143c45.6,-20.325 72.72,-65.114 72.789,-112.04Zm-10,-0.014c-0.063,43.105 -24.972,84.25 -66.86,102.92c-56.836,25.332 -123.546,-0.245 -148.878,-57.08c-6.645,-14.908 -9.787,-30.496 -9.78,-45.84l225.518,-0Z"/></g></g><g id="ball"><circle id="ball1" serif:id="ball" cx="300" cy="300" r="73.389" style="fill:#fff;"/><path d="M300,216.611c-46.023,0 -83.389,37.366 -83.389,83.389c0,46.023 37.366,83.389 83.389,83.389c46.023,-0 83.389,-37.366 83.389,-83.389c-0,-46.023 -37.366,-83.389 -83.389,-83.389Zm0,10c40.504,0 73.389,32.885 73.389,73.389c-0,40.504 -32.885,73.389 -73.389,73.389c-40.504,-0 -73.389,-32.885 -73.389,-73.389c0,-40.504 32.885,-73.389 73.389,-73.389Z"/></g><g id="text"><g id="top1" serif:id="top"><path d="M469.192,206.863l8.398,-4.333l8.319,-3.504l-8.645,6.035l2.659,5.155l9.929,-3.547l-7.677,4.748l-8.399,4.333l3.21,6.221l9.82,-5.066l19.863,-13.736l-2.59,-5.021l-12.244,2.659l9.264,-8.436l-2.591,-5.021l-22.706,8.226l-9.82,5.066l3.21,6.221Z" style="fill-rule:nonzero;"/><path d="M449.314,177.452l10.262,-7.98l6.139,7.894l-10.262,7.98l4.297,5.526l27.629,-21.486l-4.297,-5.526l-11.841,9.209l-6.139,-7.894l11.841,-9.209l-4.298,-5.525l-27.628,21.486l4.297,5.525Z" style="fill-rule:nonzero;"/><path d="M449.837,128.033c-4.119,-3.646 -10.471,-3.258 -14.149,0.898l-9.908,11.195c-3.678,4.157 -3.295,10.438 0.861,14.116l2.995,2.651c4.119,3.645 10.471,3.258 14.116,-0.861l9.908,-11.195c3.645,-4.119 3.291,-10.508 -0.828,-14.153l-2.995,-2.651Zm-4.673,5.279l2.996,2.651c1.235,1.093 1.352,2.999 0.258,4.235l-9.908,11.195c-1.093,1.236 -2.962,1.385 -4.235,0.258l-2.995,-2.651c-1.273,-1.126 -1.385,-2.961 -0.258,-4.234l9.908,-11.196c1.093,-1.235 2.999,-1.352 4.234,-0.258Z" style="fill-rule:nonzero;"/><path d="M394.909,131.835l10.58,-7.239l-1.404,12.743l5.703,3.421l18.003,-30.015l-6.003,-3.601l-9.542,15.908l0.745,-7.074l-3.43,-2.058l-5.89,3.988l9.541,-15.907l-6.003,-3.601l-18.003,30.014l5.703,3.421Z" style="fill-rule:nonzero;"/><path d="M377.82,85.671c-5.153,-1.923 -10.942,0.719 -12.883,5.919l-5.227,14.006c-1.941,5.2 0.672,10.925 5.872,12.866l3.747,1.398c5.153,1.924 10.943,-0.719 12.866,-5.872l5.227,-14.006c1.923,-5.153 -0.701,-10.989 -5.854,-12.912l-3.748,-1.399Zm-2.465,6.605l3.748,1.399c1.545,0.577 2.338,2.314 1.761,3.859l-5.227,14.007c-0.577,1.545 -2.267,2.356 -3.86,1.761l-3.748,-1.398c-1.592,-0.595 -2.356,-2.267 -1.761,-3.86l5.227,-14.006c0.577,-1.546 2.314,-2.339 3.86,-1.762Z" style="fill-rule:nonzero;"/><path d="M328.198,108.956l1.695,-9.652l7.286,-12.58l2.563,14.309l-1.695,9.652l6.895,1.211l1.911,-10.883l-4.525,-25.111l-6.303,-1.107l-12.81,22.067l-1.911,10.883l6.894,1.211Z" style="fill-rule:nonzero;"/><path d="M285.74,100.048l0.072,6.999l23.999,-0.249l-0.363,-34.998l-23.999,0.249l0.073,7l16.999,-0.177l0.081,7.85l-14.999,0.156l0.073,6.999l14.999,-0.155l0.064,6.149l-16.999,0.177Z" style="fill-rule:nonzero;"/><path d="M260.528,110.975l13.731,-2.73l-6.826,-34.328l-13.731,2.731c-5.394,1.072 -8.92,6.413 -7.848,11.807l2.916,14.663c1.073,5.394 6.364,8.93 11.758,7.857Zm-7.808,-23.885c-0.322,-1.619 0.739,-3.206 2.357,-3.528l6.866,-1.365l4.086,20.548l-6.866,1.365c-1.667,0.331 -3.206,-0.739 -3.527,-2.357l-2.916,-14.663Z" style="fill-rule:nonzero;"/><path d="M220.979,92.449l-2.226,-5.572l-6.5,2.596l2.225,5.572l6.501,-2.596Z" style="fill:#00c582;fill-rule:nonzero;"/><path d="M185.779,128.688l-5.92,3.734l1.467,2.326c2.96,4.694 9.098,6.084 13.792,3.124l3.384,-2.134c4.652,-2.934 6.057,-9.141 3.123,-13.793l-7.975,-12.645c-2.934,-4.652 -9.168,-6.1 -13.82,-3.166l-3.383,2.134c-4.652,2.934 -6.058,9.141 -3.097,13.835l1.467,2.326l5.921,-3.734l-1.467,-2.326c-0.88,-1.396 -0.459,-3.258 0.937,-4.138l3.383,-2.134c1.396,-0.88 3.258,-0.459 4.138,0.937l7.975,12.645c0.881,1.396 0.501,3.231 -0.937,4.138l-3.383,2.134c-1.438,0.907 -3.231,0.501 -4.138,-0.937l-1.467,-2.326Z" style="fill-rule:nonzero;"/><path d="M153.316,134.49l19.048,20.522l5.131,-4.763l-23.811,-25.652l-17.59,16.328l4.762,5.13l12.46,-11.565Z" style="fill-rule:nonzero;"/><path d="M137.902,194.489l4.167,-5.625l-20.048,-14.852c-1.325,-0.983 -1.607,-2.871 -0.624,-4.197l2.381,-3.214c0.982,-1.326 2.87,-1.607 4.196,-0.624l20.048,14.852l4.167,-5.625l-20.048,-14.852c-4.459,-3.304 -10.754,-2.367 -14.028,2.052l-2.381,3.215c-3.274,4.419 -2.297,10.743 2.122,14.017l20.048,14.853Z" style="fill-rule:nonzero;"/><path d="M107.866,216.217c0.957,1.802 2.492,3.33 4.469,4.295l0.449,0.219c4.988,2.434 10.939,0.387 13.373,-4.601l5.702,-11.683l-31.454,-15.35l-6.141,12.581c-2.434,4.988 -0.386,10.939 4.601,13.373l1.348,0.658c2.517,1.228 5.246,1.336 7.653,0.508Zm12,-3.157c-0.745,1.528 -2.484,2.126 -4.012,1.38l-0.449,-0.219c-1.528,-0.745 -2.126,-2.484 -1.38,-4.012l2.631,-5.392l5.842,2.851l-2.632,5.392Zm-17.93,-4.3c-1.528,-0.745 -2.126,-2.484 -1.381,-4.012l3.07,-6.29l6.74,3.289l-3.07,6.291c-0.745,1.528 -2.484,2.126 -4.011,1.38l-1.348,-0.658Z" style="fill-rule:nonzero;"/></g><g id="bottom1" serif:id="bottom"><path d="M129.437,390.601l-8.462,4.206l-8.371,3.38l8.734,-5.906l-2.582,-5.193l-9.98,3.398l7.747,-4.633l8.462,-4.207l-3.116,-6.268l-9.895,4.919l-20.066,13.437l2.515,5.06l12.282,-2.476l-9.388,8.296l2.515,5.059l22.826,-7.885l9.895,-4.919l-3.116,-6.268Z" style="fill-rule:nonzero;"/><path d="M148.873,420.305l-10.38,7.826l-6.02,-7.985l10.38,-7.826l-4.215,-5.589l-27.946,21.071l4.214,5.589l11.977,-9.03l6.021,7.984l-11.977,9.031l4.214,5.589l27.946,-21.071l-4.214,-5.589Z" style="fill-rule:nonzero;"/><path d="M147.612,469.711c4.064,3.706 10.421,3.414 14.161,-0.687l10.074,-11.046c3.74,-4.101 3.451,-10.387 -0.65,-14.127l-2.955,-2.696c-4.064,-3.706 -10.421,-3.413 -14.128,0.651l-10.074,11.046c-3.706,4.063 -3.447,10.458 0.617,14.164l2.955,2.695Zm4.751,-5.209l-2.955,-2.695c-1.22,-1.112 -1.307,-3.019 -0.195,-4.238l10.074,-11.047c1.111,-1.219 2.982,-1.34 4.238,-0.195l2.955,2.696c1.256,1.145 1.341,2.982 0.195,4.238l-10.074,11.046c-1.112,1.219 -3.019,1.307 -4.238,0.195Z" style="fill-rule:nonzero;"/><path d="M202.591,466.729l-10.687,7.08l1.594,-12.72l-5.651,-3.506l-18.449,29.743l5.948,3.69l9.778,-15.764l-0.85,7.063l3.399,2.108l5.949,-3.899l-9.778,15.763l5.949,3.69l18.449,-29.742l-5.651,-3.506Z" style="fill-rule:nonzero;"/><path d="M218.988,513.143c5.124,2 10.952,-0.556 12.97,-5.726l5.436,-13.926c2.018,-5.17 -0.509,-10.934 -5.679,-12.952l-3.726,-1.454c-5.124,-2 -10.952,0.555 -12.952,5.679l-5.436,13.926c-2,5.124 0.538,10.999 5.661,12.999l3.726,1.454Zm2.564,-6.567l-3.726,-1.455c-1.537,-0.6 -2.304,-2.348 -1.704,-3.885l5.436,-13.927c0.6,-1.537 2.302,-2.322 3.886,-1.704l3.726,1.455c1.583,0.618 2.322,2.302 1.704,3.885l-5.437,13.927c-0.6,1.537 -2.348,2.304 -3.885,1.704Z" style="fill-rule:nonzero;"/><path d="M268.953,490.602l-1.839,9.626l-7.473,12.469l-2.35,-14.346l1.839,-9.626l-6.875,-1.313l-2.074,10.854l4.15,25.175l6.286,1.201l13.138,-21.873l2.073,-10.854l-6.875,-1.313Z" style="fill-rule:nonzero;"/><path d="M311.273,500.143l0.032,-7l-24,-0.109l-0.159,35l24,0.109l0.032,-7l-17,-0.078l0.036,-7.85l15,0.069l0.031,-7l-14.999,-0.068l0.028,-6.15l16.999,0.077Z" style="fill-rule:nonzero;"/><path d="M336.645,489.593l-13.77,2.525l6.313,34.426l13.77,-2.525c5.41,-0.992 9.015,-6.279 8.023,-11.689l-2.696,-14.705c-0.992,-5.41 -6.23,-9.024 -11.64,-8.032Zm7.451,23.999c0.298,1.623 -0.787,3.195 -2.41,3.492l-6.885,1.263l-3.779,-20.606l6.886,-1.263c1.672,-0.307 3.194,0.787 3.492,2.41l2.696,14.704Z" style="fill-rule:nonzero;"/><path d="M375.914,508.708l2.142,5.605l6.538,-2.5l-2.142,-5.604l-6.538,2.499Z" style="fill:#00c582;fill-rule:nonzero;"/><path d="M411.65,472.998l5.976,-3.645l-1.432,-2.348c-2.89,-4.738 -9.007,-6.219 -13.745,-3.329l-3.415,2.083c-4.695,2.865 -6.193,9.05 -3.329,13.745l7.786,12.763c2.864,4.695 9.076,6.236 13.771,3.372l3.415,-2.084c4.695,-2.864 6.193,-9.049 3.303,-13.787l-1.432,-2.348l-5.976,3.646l1.432,2.347c0.859,1.409 0.41,3.265 -0.999,4.124l-3.415,2.083c-1.408,0.859 -3.264,0.41 -4.123,-0.999l-7.786,-12.762c-0.859,-1.409 -0.452,-3.238 0.999,-4.124l3.415,-2.083c1.451,-0.885 3.238,-0.452 4.123,0.999l1.432,2.347Z" style="fill-rule:nonzero;"/><path d="M444.197,467.682l-18.74,-20.804l-5.201,4.685l23.425,26.005l17.832,-16.063l-4.685,-5.201l-12.631,11.378Z" style="fill-rule:nonzero;"/><path d="M460.505,407.92l-4.251,5.561l19.824,15.151c1.311,1.001 1.564,2.894 0.562,4.205l-2.429,3.178c-1.002,1.311 -2.894,1.564 -4.205,0.562l-19.824,-15.15l-4.251,5.561l19.824,15.151c4.41,3.37 10.718,2.527 14.057,-1.843l2.429,-3.178c3.34,-4.37 2.457,-10.709 -1.913,-14.048l-19.823,-15.15Z" style="fill-rule:nonzero;"/><path d="M490.862,386.643c-0.93,-1.817 -2.442,-3.368 -4.405,-4.362l-0.446,-0.226c-4.951,-2.508 -10.931,-0.55 -13.44,4.401l-5.875,11.596l31.221,15.819l6.328,-12.489c2.508,-4.95 0.55,-10.931 -4.401,-13.44l-1.338,-0.678c-2.498,-1.265 -5.225,-1.414 -7.644,-0.621Zm-12.046,2.977c0.768,-1.517 2.515,-2.089 4.032,-1.321l0.446,0.226c1.516,0.769 2.088,2.516 1.32,4.032l-2.712,5.353l-5.798,-2.938l2.712,-5.352Zm17.864,4.567c1.517,0.768 2.089,2.515 1.32,4.032l-3.163,6.244l-6.691,-3.39l3.164,-6.244c0.768,-1.516 2.516,-2.089 4.032,-1.32l1.338,0.678Z" style="fill-rule:nonzero;"/></g></g><g id="arrows"><path d="M528.09,272.558l-17.359,-0.472c1.885,9.137 3.135,18.454 3.135,27.914c-0,20.786 -2.972,40.884 -8.517,59.901l-10.44,-0c5.824,-18.951 8.957,-39.063 8.957,-59.901c-0,-20.838 -3.133,-40.95 -8.957,-59.901l7.377,0l25.804,32.459Z" style="fill:#00c582;"/><path d="M89.269,327.914c-1.885,-9.137 -3.135,-18.454 -3.135,-27.914c0,-20.786 2.972,-40.884 8.517,-59.901l10.44,0c-5.824,18.951 -8.957,39.063 -8.957,59.901c0,20.838 3.133,40.95 8.957,59.901l-7.377,-0l-25.804,-32.459l17.359,0.472Z" style="fill:#00c582;"/></g></g></svg>