<svg width="150" height="150" viewBox="0 0 150 150" fill="none" xmlns="http://www.w3.org/2000/svg">
<rect width="150" height="150" fill="white"/>
<path fill-rule="evenodd" clip-rule="evenodd" d="M122.143 19.875H27.8571V82.875C27.8571 108.97 48.9637 130.125 75 130.125C101.036 130.125 122.143 108.97 122.143 82.875V19.875ZM20 12V82.875C20 113.32 44.6243 138 75 138C105.376 138 130 113.32 130 82.875V12H20Z" fill="#222222"/>
<path d="M70.9192 70.9429L85.8383 61.7714V55.1714C85.8383 53.1714 85.1363 51.4857 83.7321 50.1143C82.3279 48.6857 80.602 47.9714 78.5543 47.9714H71.5335C69.5443 47.9714 67.8183 48.6857 66.3557 50.1143C64.893 51.4857 64.1617 53.1714 64.1617 55.1714V58.2571H56V55.1714C56 52.4286 56.7021 49.9143 58.1062 47.6286C59.5104 45.2857 61.3826 43.4286 63.7229 42.0571C66.1216 40.6857 68.7252 40 71.5335 40H78.5543C81.3626 40 83.9369 40.6857 86.2771 42.0571C88.6759 43.3714 90.5481 45.2 91.8938 47.5429C93.2979 49.8286 94 52.3714 94 55.1714V66.1429L79.0808 75.3143V81.2286H70.9192V70.9429ZM70.3926 91.7714H79.6074V100H70.3926V91.7714Z" fill="#03B37B"/>
</svg>
